<?xml version="1.0" encoding="UTF-8"?>
<svg id="Layer_1" xmlns="http://www.w3.org/2000/svg" version="1.1" xmlns:xlink="http://www.w3.org/1999/xlink" viewBox="0 0 1080 1080">
  <!-- Generator: Adobe Illustrator 29.1.0, SVG Export Plug-In . SVG Version: 2.1.0 Build 142)  -->
  <defs>
    <style>
      .st0 {
        fill: url(#linear-gradient);
      }
    </style>
    <linearGradient id="linear-gradient" x1="211.2" y1="796.9" x2="886.6" y2="290.3" gradientTransform="translate(0 1080) scale(1 -1)" gradientUnits="userSpaceOnUse">
      <stop offset="0" stop-color="#ffd86e"/>
      <stop offset="0" stop-color="#f6ca61"/>
      <stop offset="0" stop-color="#efc058"/>
      <stop offset="0" stop-color="#edbd55"/>
      <stop offset=".2" stop-color="#c67c23"/>
      <stop offset=".3" stop-color="#d99e42"/>
      <stop offset=".3" stop-color="#ebbe60"/>
      <stop offset=".4" stop-color="#f2cb6c"/>
      <stop offset=".4" stop-color="#f3d072"/>
      <stop offset=".5" stop-color="#f7dd86"/>
      <stop offset=".6" stop-color="#fef4a5"/>
      <stop offset=".6" stop-color="#fff8aa"/>
      <stop offset=".6" stop-color="#f7e490"/>
      <stop offset=".8" stop-color="#e4b552"/>
      <stop offset=".8" stop-color="#d39638"/>
      <stop offset=".8" stop-color="#c98228"/>
      <stop offset=".8" stop-color="#c67c23"/>
      <stop offset=".9" stop-color="#c18227"/>
      <stop offset=".9" stop-color="#ba8f30"/>
      <stop offset=".9" stop-color="#d4ab48"/>
      <stop offset="1" stop-color="#f3cb63"/>
      <stop offset="1" stop-color="#ffd86e"/>
    </linearGradient>
  </defs>
  <path class="st0" d="M537.4,418.9c2-.8,3.1-.1,4.5,1.2,6.6,5.8,19.9,24.6,25.5,32.5,6.9,9.9,14.6,21.1,19,32.3,1.1,2.7,5.7,20.2,6.8,20.2,19.6-30.9,28.4-66.7,17.5-102.6-12.6-41.3-43.2-68.2-71.5-98.6-18.7,21.1-38.8,37.9-53.9,62.2-24.7,39.9-29.8,73.8-11.4,117.9,3,7.2,7.8,17.3,13.3,22.5,4.1-34.3,30-61.2,50.1-87.6M498.1,586.1c-20.5-43-16.2-83.4-62.6-109.6-21.9-12.4-49.5-16.5-74.5-14.6-23.3,1.8-46.7,12.5-70.9,9.4-1.4,1.3,7.1,13.4,8.3,15.3,16.6,24.4,47.9,65,73.1,79.5,37.1,21.4,67,6.8,105,13.9,7.3,1.4,14.3,4.3,21.5,6.1M789.8,470c-23.5,6.1-48.5-6.3-72.3-8.1-45.7-3.4-94.7,13.8-112.8,58.7-8.6,21.5-10,46.3-24.3,65.5,11.1-2.8,21.5-7.2,33.1-8.1,21.3-1.7,42,3.1,63.2-.2,28-4.3,49.8-20.5,68.4-41,5.8-6.5,48.2-62.4,44.6-66.8M541.3,637.5c-1.9.5-2.2-.3-3.4-1.3-4.7-4.1-9.1-11.6-14.8-16.2-29.1-23.5-73.6-26.9-108.7-17.6l1.7,3c35.4,16,73.8,37,100.9,65.1,8,8.3,13.5,18.6,20.4,26.8.9,1.1,1.3,2.7,3.1,2.3,28.8-45,79.4-74.2,127.6-94.6-4.9-5-15.5-5.7-22.5-6.6-37-4.6-84.5,4.5-104.5,39M539.1,716.9c-1.3,30,29.3,30.6,29.3,30.6-30.6,1-29.3,28.6-29.3,28.6,0-27.9-27.5-28.6-27.5-28.6,28.6-1.4,27.5-30.6,27.5-30.6"/>
</svg>